# xmcd CD database file
#
# Track frame offsets:
#	183
#	18090
#	33668
#	51640
#	66720
#	84933
#	102593
#	123195
#	144845
#	170213
#
# Disc length: 2485 seconds
#
# Revision: 6
# Processed by: cddbd v1.5.2PL0 Copyright (c) Steve Scherf et al.
# Submitted via: CDex 1.70beta2
#
DISCID=8e09b30a
DTITLE=Olivia Newton-John - The Rumour
DYEAR=1988
DGENRE=Country
TTITLE0=The Rumour
TTITLE1=Love And Let Live
TTITLE2=Can't We Talk It Over In Bed
TTITLE3=Let's Talk About Toorrow
TTITLE4=It's Not Heaven
TTITLE5=Get Out
TTITLE6=Big And Strong
TTITLE7=Car Games
TTITLE8=Walk Through Fire
TTITLE9=Tutta La Vita
EXTD=YEAR: 1988
EXTT0=
EXTT1=
EXTT2=
EXTT3=
EXTT4=
EXTT5=
EXTT6=
EXTT7=
EXTT8=
EXTT9=
PLAYORDER=
